Coordinates
version=1
nRows=15
nColumns=34
inDegrees=no

Units are S.I. units (second, meters, Newtons, ...)
If the header above contains a line with 'inDegrees', this indicates whether rotational values are in degrees (yes) or radians (no).

endheader
time	pelvis_tilt	pelvis_list	pelvis_rotation	pelvis_tx	pelvis_ty	pelvis_tz	hip_flexion_r	hip_adduction_r	hip_rotation_r	knee_angle_r	ankle_angle_r	subtalar_angle_r	mtp_angle_r	hip_flexion_l	hip_adduction_l	hip_rotation_l	knee_angle_l	ankle_angle_l	subtalar_angle_l	mtp_angle_l	lumbar_extension	lumbar_bending	lumbar_rotation	arm_flex_r	arm_add_r	arm_rot_r	elbow_flex_r	pro_sup_r	arm_flex_l	arm_add_l	arm_rot_l	elbow_flex_l	pro_sup_l
10.09	-0.237544	-0.00420234	0.0595281	-0.237454	0.913589	-0.610784	0.612223	-0.234565	-0.199344	0.620393	0.387839	0.22426	-0.00241763	0.638457	-0.181383	-0.145387	0.599715	0.366098	0.309401	-0.00241763	-0.0420822	0.00373424	-0.0274602	0.493864	-0.272228	-0.0375198	0.838876	2.09	0.654828	-0.247795	-0.0312957	0.63759	2.09
10.1	-0.228967	-0.00432718	0.0601624	-0.233413	0.918112	-0.61085	0.583291	-0.229802	-0.200872	0.592672	0.375883	0.227355	-0.00241763	0.609765	-0.17781	-0.142955	0.571852	0.356359	0.310147	-0.00241763	-0.0383219	0.00407999	-0.0291067	0.464606	-0.267795	-0.0514411	0.830479	2.09	0.626935	-0.246802	-0.0437156	0.623161	2.09
10.11	-0.220473	-0.00392949	0.0602667	-0.229391	0.922388	-0.610863	0.554853	-0.225221	-0.201379	0.565411	0.364037	0.230563	-0.00241763	0.580993	-0.174156	-0.140709	0.544144	0.34632	0.309794	-0.00241763	-0.0348737	0.00361123	-0.0300935	0.435504	-0.263586	-0.063518	0.822303	2.09	0.599712	-0.246033	-0.0546621	0.609188	2.09
10.12	-0.211821	-0.00289091	0.0601174	-0.225405	0.926464	-0.610946	0.52659	-0.221528	-0.201813	0.538686	0.35124	0.235373	-0.00241763	0.551688	-0.169684	-0.137802	0.515878	0.335377	0.306708	-0.00241763	-0.0321245	0.00261962	-0.0309294	0.407177	-0.260148	-0.0721704	0.813905	2.09	0.572945	-0.244709	-0.0667547	0.59571	2.09
10.13	-0.203596	-0.00209673	0.0596312	-0.221516	0.930267	-0.611033	0.499112	-0.217712	-0.201796	0.512205	0.338926	0.238545	-0.00241763	0.523146	-0.165718	-0.134697	0.487894	0.323831	0.302291	-0.00241763	-0.0293993	0.002155	-0.0318566	0.380163	-0.25765	-0.0768677	0.805222	2.09	0.546274	-0.24292	-0.0802105	0.582979	2.09
10.14	-0.196193	-0.0020301	0.0584365	-0.217757	0.933723	-0.610981	0.472926	-0.212562	-0.199573	0.485616	0.327985	0.236192	-0.00241763	0.496299	-0.163455	-0.132603	0.461147	0.312461	0.29778	-0.00241763	-0.0262748	0.0024285	-0.0321667	0.354259	-0.255809	-0.0795857	0.7967	2.09	0.51997	-0.240944	-0.0923404	0.570695	2.09
10.15	-0.18893	-0.00212275	0.0566461	-0.214094	0.936907	-0.610797	0.447323	-0.2068	-0.195584	0.459168	0.316881	0.231158	-0.00241763	0.47005	-0.162173	-0.131786	0.435193	0.301556	0.292226	-0.00241763	-0.0235717	0.00270304	-0.0315563	0.329229	-0.253756	-0.0837112	0.788386	2.09	0.494605	-0.238514	-0.10404	0.558454	2.09
10.16	-0.181183	-0.00186686	0.0549142	-0.210502	0.93991	-0.610586	0.421721	-0.201953	-0.192629	0.433739	0.30477	0.2293	-0.00241763	0.443403	-0.160844	-0.132034	0.409389	0.290743	0.286219	-0.00241763	-0.0219645	0.00260435	-0.0308806	0.305075	-0.250826	-0.0903565	0.780357	2.09	0.470208	-0.236004	-0.117147	0.546593	2.09
10.17	-0.173212	-0.00149357	0.0538559	-0.20699	0.942708	-0.610441	0.396368	-0.198221	-0.19173	0.40956	0.292767	0.230065	-0.00241763	0.416979	-0.159406	-0.133064	0.384105	0.280004	0.282121	-0.00241763	-0.0210242	0.00249028	-0.0311373	0.281872	-0.247423	-0.0974251	0.77272	2.09	0.446442	-0.233933	-0.130357	0.535278	2.09
10.18	-0.16543	-0.00118974	0.0531817	-0.203563	0.945265	-0.610373	0.371408	-0.194735	-0.190625	0.385613	0.281738	0.227991	-0.00241763	0.391262	-0.157902	-0.13409	0.359502	0.269786	0.279207	-0.00241763	-0.020255	0.00250997	-0.0321694	0.260348	-0.243823	-0.10399	0.76397	2.09	0.422886	-0.232095	-0.142678	0.524549	2.09
10.19	-0.157929	-0.00064887	0.0518804	-0.200239	0.947609	-0.610291	0.347104	-0.191232	-0.187751	0.361618	0.271522	0.222285	-0.00241763	0.365709	-0.155949	-0.134009	0.334739	0.25994	0.273512	-0.00241763	-0.019736	0.00224618	-0.0329107	0.241038	-0.239474	-0.111736	0.752669	2.09	0.399148	-0.230418	-0.154374	0.51514	2.09
10.2	-0.150535	0.000152728	0.0498885	-0.197049	0.949758	-0.610155	0.323863	-0.188109	-0.184779	0.338844	0.262232	0.216491	-0.00241763	0.340221	-0.15364	-0.133012	0.309903	0.250299	0.264552	-0.00241763	-0.019663	0.00171778	-0.0332445	0.222777	-0.234692	-0.12029	0.740869	2.09	0.375477	-0.228731	-0.165433	0.506928	2.09
10.21	-0.142684	0.000748465	0.0481683	-0.193951	0.951724	-0.610046	0.300977	-0.185352	-0.183631	0.317806	0.254495	0.211452	-0.00241763	0.315159	-0.151814	-0.133406	0.286512	0.241772	0.257217	-0.00241763	-0.0203111	0.00159733	-0.0343922	0.204534	-0.230479	-0.126682	0.73083	2.09	0.352383	-0.226451	-0.176965	0.498693	2.09
10.22	-0.134082	0.00108595	0.0468983	-0.190852	0.95354	-0.609971	0.277581	-0.182797	-0.184075	0.297758	0.248416	0.206989	-0.00241763	0.290278	-0.150699	-0.136348	0.2649	0.23475	0.253669	-0.00241763	-0.0218402	0.00186533	-0.0367261	0.187125	-0.226511	-0.130467	0.720765	2.09	0.329692	-0.22374	-0.190479	0.490533	2.09
10.23	-0.125511	0.00155892	0.0453765	-0.187765	0.955181	-0.609821	0.254626	-0.180555	-0.184854	0.278556	0.243395	0.204732	-0.00241763	0.26584	-0.149704	-0.140016	0.244234	0.228264	0.250549	-0.00241763	-0.0236721	0.00167846	-0.0388996	0.170816	-0.222004	-0.133752	0.709077	2.09	0.307358	-0.221041	-0.205497	0.483414	2.09
